<svg width="2028" height="397" viewBox="0 0 2028 397" fill="none" xmlns="http://www.w3.org/2000/svg">
  <path d="M70.5 394C63.1667 394 57 391.5 52 386.5C47.3333 381.5 45 375.5 45 368.5V173.5H23.5C16.5 173.5 10.8333 171.5 6.5 167.5C2.16667 163.5 3.53903e-07 158.5 3.53903e-07 152.5C3.53903e-07 145.833 2.16667 140.5 6.5 136.5C10.8333 132.5 16.5 130.5 23.5 130.5H45V122C45 84.6667 56.1667 55 78.5 33C101.167 11 137.833 -2.36034e-05 188.5 -2.36034e-05C212.5 -2.36034e-05 231.667 3.99997 246 12C260.667 20 268 30.3333 268 43C268 57.6666 259 65 241 65C234 65 227.667 63.5 222 60.5C216.667 57.5 211.333 54 206 50C200.667 46 195 42.5 189 39.5C183 36.5 176 35 168 35C155.667 35 144 37.5 133 42.5C122 47.1667 113 55.8333 106 68.5C99.3333 81.1667 96 99 96 122V130.5H147.5C154.5 130.5 160.167 132.5 164.5 136.5C168.833 140.5 171 145.833 171 152.5C171 158.5 168.833 163.5 164.5 167.5C160.167 171.5 154.5 173.5 147.5 173.5H96V368.5C96 375.5 93.5 381.5 88.5 386.5C83.8333 391.5 77.8333 394 70.5 394ZM237 394C229.667 394 223.5 391.667 218.5 387C213.833 382 211.5 375.833 211.5 368.5V146C211.5 138.333 213.833 132.167 218.5 127.5C223.5 122.833 229.667 120.5 237 120.5C244.667 120.5 250.833 122.833 255.5 127.5C260.167 132.167 262.5 138.333 262.5 146V368.5C262.5 375.833 260.167 382 255.5 387C250.833 391.667 244.667 394 237 394ZM380.93 394.5C373.596 394.5 367.43 392.167 362.43 387.5C357.763 382.5 355.43 376.333 355.43 369V146C355.43 138.333 357.763 132.167 362.43 127.5C367.43 122.833 373.596 120.5 380.93 120.5C388.596 120.5 394.763 122.833 399.43 127.5C404.096 132.167 406.43 138.333 406.43 146V151.5C416.763 141.167 429.263 133 443.93 127C458.596 121 474.43 118 491.43 118C514.43 118 534.93 123 552.93 133C571.263 142.667 585.596 157 595.93 176C606.596 195 611.93 218.333 611.93 246V369C611.93 376.333 609.43 382.5 604.43 387.5C599.763 392.167 593.763 394.5 586.43 394.5C579.096 394.5 572.93 392.167 567.93 387.5C563.263 382.5 560.93 376.333 560.93 369V246C560.93 217.667 553.263 197 537.93 184C522.93 170.667 504.096 164 481.43 164C467.43 164 454.763 166.833 443.43 172.5C432.096 178.167 423.096 185.833 416.43 195.5C409.763 204.833 406.43 215.667 406.43 228V369C406.43 376.333 404.096 382.5 399.43 387.5C394.763 392.167 388.596 394.5 380.93 394.5ZM751.25 394C732.25 394 716.583 386.333 704.25 371C692.25 355.667 686.25 335.833 686.25 311.5V18.5C686.25 13.8333 687.583 10.1666 690.25 7.49997C693.25 4.83332 696.917 3.49999 701.25 3.49999C705.917 3.49999 709.583 4.83332 712.25 7.49997C714.917 10.1666 716.25 13.8333 716.25 18.5V311.5C716.25 326.833 719.417 339.5 725.75 349.5C732.417 359.167 740.917 364 751.25 364H763.75C772.083 364 776.25 369 776.25 379C776.25 383.333 774.917 387 772.25 390C769.583 392.667 765.917 394 761.25 394H751.25ZM940.879 397C914.212 397 890.212 391 868.879 379C847.879 366.667 831.212 350 818.879 329C806.879 307.667 800.879 283.833 800.879 257.5C800.879 230.833 806.879 207 818.879 186C831.212 164.667 847.879 148 868.879 136C890.212 123.667 914.212 117.5 940.879 117.5C967.546 117.5 991.379 123.667 1012.38 136C1033.38 148 1049.88 164.667 1061.88 186C1074.21 207 1080.38 230.833 1080.38 257.5V379C1080.38 383.333 1079.05 387 1076.38 390C1073.71 392.667 1070.05 394 1065.38 394C1061.05 394 1057.38 392.667 1054.38 390C1051.71 387 1050.38 383.333 1050.38 379V340C1039.38 357.333 1024.38 371.167 1005.38 381.5C986.379 391.833 964.879 397 940.879 397ZM940.879 369C961.879 369 980.546 364.167 996.879 354.5C1013.55 344.5 1026.55 331.167 1035.88 314.5C1045.55 297.5 1050.38 278.5 1050.38 257.5C1050.38 236.167 1045.55 217.167 1035.88 200.5C1026.55 183.5 1013.55 170.167 996.879 160.5C980.546 150.5 961.879 145.5 940.879 145.5C920.212 145.5 901.546 150.5 884.879 160.5C868.212 170.167 855.046 183.5 845.379 200.5C835.712 217.167 830.879 236.167 830.879 257.5C830.879 278.5 835.712 297.5 845.379 314.5C855.046 331.167 868.212 344.5 884.879 354.5C901.546 364.167 920.212 369 940.879 369ZM1170.23 394C1165.9 394 1162.23 392.667 1159.23 390C1156.57 387 1155.23 383.333 1155.23 379V135.5C1155.23 130.833 1156.57 127.167 1159.23 124.5C1162.23 121.833 1165.9 120.5 1170.23 120.5C1174.9 120.5 1178.57 121.833 1181.23 124.5C1183.9 127.167 1185.23 130.833 1185.23 135.5V161.5C1196.23 147.833 1209.9 137 1226.23 129C1242.9 121 1260.9 117 1280.23 117C1304.23 117 1325.73 122 1344.73 132C1364.07 141.667 1379.23 156 1390.23 175C1401.23 193.667 1406.73 216.833 1406.73 244.5V379C1406.73 383.333 1405.23 387 1402.23 390C1399.57 392.667 1396.07 394 1391.73 394C1387.4 394 1383.73 392.667 1380.73 390C1378.07 387 1376.73 383.333 1376.73 379V244.5C1376.73 222.5 1372.4 204.333 1363.73 190C1355.4 175.667 1343.9 165 1329.23 158C1314.9 150.667 1298.57 147 1280.23 147C1262.23 147 1246.07 150.5 1231.73 157.5C1217.4 164.167 1206.07 173.5 1197.73 185.5C1189.4 197.5 1185.23 211 1185.23 226V379C1185.23 383.333 1183.9 387 1181.23 390C1178.57 392.667 1174.9 394 1170.23 394ZM1612.66 397C1586.66 397 1563.33 390.833 1542.66 378.5C1522.33 366.167 1506.16 349.5 1494.16 328.5C1482.49 307.5 1476.66 283.833 1476.66 257.5C1476.66 230.833 1482.16 207 1493.16 186C1504.16 165 1519.33 148.5 1538.66 136.5C1557.99 124.167 1580.16 118 1605.16 118C1626.49 118 1645.99 122.167 1663.66 130.5C1681.33 138.5 1696.66 150.833 1709.66 167.5C1712.33 170.833 1713.33 174.333 1712.66 178C1711.99 181.667 1709.83 184.667 1706.16 187C1703.16 189.333 1699.83 190.333 1696.16 190C1692.49 189.333 1689.33 187.333 1686.66 184C1665.33 158.667 1638.16 146 1605.16 146C1585.49 146 1568.16 150.833 1553.16 160.5C1538.49 170.167 1526.99 183.333 1518.66 200C1510.66 216.667 1506.66 235.833 1506.66 257.5C1506.66 278.5 1511.16 297.5 1520.16 314.5C1529.16 331.167 1541.49 344.5 1557.16 354.5C1573.16 364.167 1591.66 369 1612.66 369C1626.33 369 1639.16 367 1651.16 363C1663.49 359 1674.16 352.833 1683.16 344.5C1686.16 341.833 1689.49 340.333 1693.16 340C1696.83 339.667 1699.99 340.833 1702.66 343.5C1705.99 346.5 1707.66 350 1707.66 354C1707.99 357.667 1706.66 360.833 1703.66 363.5C1679.33 385.833 1648.99 397 1612.66 397ZM1909.05 396.5C1882.71 396.5 1859.21 390.667 1838.55 379C1818.21 367 1802.21 350.5 1790.55 329.5C1778.88 308.5 1773.05 284.5 1773.05 257.5C1773.05 230.167 1778.55 206.167 1789.55 185.5C1800.55 164.5 1815.71 148 1835.05 136C1854.38 124 1876.55 118 1901.55 118C1926.21 118 1948.05 123.833 1967.05 135.5C1986.05 146.833 2000.88 162.667 2011.55 183C2022.21 203 2027.55 226.167 2027.55 252.5C2027.55 256.833 2026.21 260.333 2023.55 263C2020.88 265.333 2017.38 266.5 2013.05 266.5H1803.55C1804.55 286.5 1809.71 304.167 1819.05 319.5C1828.38 334.833 1840.71 346.833 1856.05 355.5C1871.71 364.167 1889.38 368.5 1909.05 368.5C1922.05 368.5 1935.05 366.333 1948.05 362C1961.38 357.333 1971.88 351.333 1979.55 344C1982.21 341.333 1985.38 340 1989.05 340C1993.05 339.667 1996.38 340.667 1999.05 343C2002.71 346 2004.55 349.333 2004.55 353C2004.88 356.667 2003.38 360 2000.05 363C1989.38 372.667 1975.38 380.667 1958.05 387C1941.05 393.333 1924.71 396.5 1909.05 396.5ZM1901.55 146C1884.21 146 1868.55 150 1854.55 158C1840.55 166 1829.05 177.167 1820.05 191.5C1811.38 205.5 1806.05 221.833 1804.05 240.5H1998.55C1996.21 212.5 1986.21 189.833 1968.55 172.5C1950.88 154.833 1928.55 146 1901.55 146Z" fill="black"/>
</svg>
